<?xml version="1.0" encoding="utf-8"?>
<!-- Generator: Adobe Illustrator 26.0.2, SVG Export Plug-In . SVG Version: 6.00 Build 0)  -->
<svg version="1.1" xmlns="http://www.w3.org/2000/svg" xmlns:xlink="http://www.w3.org/1999/xlink" x="0px" y="0px"
	 viewBox="0 0 500 500" style="enable-background:new 0 0 500 500;" xml:space="preserve">
<style type="text/css">
	.st0{fill:#EBEBEB;}
	.st1{fill:#E0E0E0;}
	.st2{fill:#F5F5F5;}
	.st3{fill:#FFFFFF;}
	.st4{opacity:0.6;}
	.st5{fill:#FAFAFA;}
	.st6{opacity:0.6;fill:#FAFAFA;}
	.st7{opacity:0.3;fill:#E0E0E0;}
	.st8{opacity:0.9;fill:#FFFFFF;}
	.st9{fill:#F0F0F0;}
	.st10{opacity:0.4;fill:#FFFFFF;}
	.st11{display:none;}
	.st12{display:inline;}
	.st13{fill:#407BFF;}
	.st14{opacity:0.9;}
	.st15{opacity:0.5;fill:#FFFFFF;}
	.st16{opacity:0.2;fill:#FFFFFF;}
	.st17{opacity:0.3;}
	.st18{opacity:0.1;fill:#FFFFFF;}
	.st19{opacity:0.2;}
	.st20{opacity:0.3;fill:#407BFF;}
</style>
<g id="Background_Complete">
	<g>
		<rect y="396.16" class="st0" width="500" height="0.25"/>
		<rect x="52.46" y="412.25" class="st0" width="33.12" height="0.25"/>
		<rect x="135.33" y="414.97" class="st0" width="44.5" height="0.25"/>
		<rect x="86.58" y="402.97" class="st0" width="70.42" height="0.25"/>
		<rect x="437.21" y="404.65" class="st0" width="12.69" height="0.25"/>
		<rect x="391.47" y="404.65" class="st0" width="36.83" height="0.25"/>
		<rect x="277.21" y="408.87" class="st0" width="31.12" height="0.25"/>
		<path class="st0" d="M237.01,351.56H43.92c-3.15,0-5.71-2.56-5.71-5.71V74.42c0-3.15,2.56-5.71,5.71-5.71h193.1
			c3.15,0,5.71,2.56,5.71,5.71v271.43C242.72,349,240.16,351.56,237.01,351.56z M43.92,68.96c-3.01,0-5.46,2.45-5.46,5.46v271.43
			c0,3.01,2.45,5.46,5.46,5.46h193.1c3.01,0,5.46-2.45,5.46-5.46V74.42c0-3.01-2.45-5.46-5.46-5.46H43.92z"/>
		<path class="st0" d="M453.31,351.56h-193.1c-3.15,0-5.71-2.56-5.71-5.71V74.42c0-3.15,2.56-5.71,5.71-5.71h193.1
			c3.15,0,5.71,2.56,5.71,5.71v271.43C459.02,349,456.46,351.56,453.31,351.56z M260.21,68.96c-3.01,0-5.46,2.45-5.46,5.46v271.43
			c0,3.01,2.45,5.46,5.46,5.46h193.1c3.01,0,5.46-2.45,5.46-5.46V74.42c0-3.01-2.45-5.46-5.46-5.46H260.21z"/>
	</g>
	<g>
		<g>
			
				<rect x="78.68" y="57.9" transform="matrix(-1.836970e-16 1 -1 -1.836970e-16 375.4499 3.7848)" class="st0" width="214.3" height="263.44"/>
			
				<rect x="211.2" y="188.82" transform="matrix(-1.836970e-16 1 -1 -1.836970e-16 507.9651 -128.7303)" class="st1" width="214.3" height="1.59"/>
			
				<rect x="67.1" y="95.46" transform="matrix(-1 -1.224647e-16 1.224647e-16 -1 371.6655 379.2346)" class="st2" width="237.47" height="188.32"/>
			<polygon class="st3" points="175.26,283.78 207.14,283.78 154.03,95.46 122.14,95.46 			"/>
			<polygon class="st3" points="149.66,283.78 168.1,283.78 114.99,95.46 96.55,95.46 			"/>
			<polygon class="st3" points="251.86,283.78 259.49,283.78 206.38,95.46 198.74,95.46 			"/>
		</g>
		<g>
			<g>
				<g>
					<path class="st1" d="M425.88,387.94H147.85c-4.05,0-7.25-3.31-7.11-7.36l6.58-198.78c0.13-4.05,3.55-7.36,7.6-7.36h278.04
						c4.05,0,7.25,3.31,7.11,7.36l-6.58,198.78C433.35,384.63,429.93,387.94,425.88,387.94z"/>
				</g>
				<g class="st4">
					<g>
						<path class="st5" d="M423.61,387.94H145.58c-4.05,0-7.25-3.31-7.11-7.36l6.58-198.78c0.13-4.05,3.55-7.36,7.6-7.36h278.04
							c4.05,0,7.25,3.31,7.11,7.36l-6.58,198.78C431.08,384.63,427.66,387.94,423.61,387.94z"/>
					</g>
				</g>
				<g>
					<g>
						<path class="st1" d="M420.03,387.58H84.24c-3.5,0-6.53,2.04-7.93,4.96c-0.8,1.68,0.43,3.62,2.32,3.62h347.02
							c1.9,0,3.13-1.94,2.32-3.62C426.57,389.62,423.53,387.58,420.03,387.58z"/>
					</g>
					<path class="st6" d="M84.24,387.58H352.2c3.5,0,6.53,2.04,7.93,4.96c0.8,1.68-0.43,3.62-2.32,3.62H78.62
						c-1.9,0-3.13-1.94-2.32-3.62C77.7,389.62,80.74,387.58,84.24,387.58z"/>
					<path class="st7" d="M244.41,393.03H174.7c-1.72,0-3.12,1.41-3.12,3.12h75.96C247.53,394.44,246.13,393.03,244.41,393.03z"/>
				</g>
				<path class="st8" d="M145.1,373.39l6.1-184.4c0.05-1.58,1.38-2.87,2.96-2.87h274.21c1.58,0,2.82,1.29,2.77,2.87l-6.1,184.4
					c-0.05,1.58-1.38,2.87-2.96,2.87H147.87C146.3,376.26,145.05,374.97,145.1,373.39z"/>
				<path class="st9" d="M152.37,365.55l5.59-168.94c0.06-1.94,1.65-3.48,3.59-3.48H420.3c2.03,0,3.66,1.68,3.59,3.71l-5.59,168.94
					c-0.06,1.94-1.65,3.48-3.59,3.48H155.96C153.93,369.26,152.3,367.58,152.37,365.55z"/>
				<polygon class="st3" points="363.44,376.27 408.9,376.27 356.51,186.13 311.06,186.13 				"/>
				<polygon class="st3" points="334.49,376.27 350.84,376.27 298.46,186.13 282.1,186.13 				"/>
				<polygon class="st3" points="241.41,376.27 257.77,376.27 205.38,186.13 189.02,186.13 				"/>
				<path class="st10" d="M293.61,294.96c-0.04,1.19-1.04,2.16-2.23,2.16c-1.19,0-2.12-0.97-2.09-2.16
					c0.04-1.19,1.04-2.16,2.23-2.16C292.72,292.8,293.65,293.77,293.61,294.96z"/>
			</g>
		</g>
	</g>
</g>
<g id="Background_Simple" class="st11">
	<g class="st12">
		<g>
			<path class="st13" d="M174.44,355.46c54.97,1.18,105.62-37.22,142.59-76.53C472.76,141.51,294.83,20,172.13,74.17
				C49.43,128.33,7.8,351.57,174.44,355.46z"/>
		</g>
		<g class="st14">
			<path class="st3" d="M174.44,355.46c54.97,1.18,105.62-37.22,142.59-76.53C472.76,141.51,294.83,20,172.13,74.17
				C49.43,128.33,7.8,351.57,174.44,355.46z"/>
		</g>
	</g>
</g>
<g id="Shadow_1_">
	
		<ellipse id="_x3C_Path_x3E__00000161599120648423499020000016152823149987353777_" class="st2" cx="250" cy="430" rx="193.89" ry="11.32"/>
</g>
<g id="Cat">
	<g>
		<path class="st15" d="M158,301.52c-43.78-43.78-43.78-114.74-0.01-158.51c43.78-43.78,114.74-43.78,158.52,0
			c43.76,43.76,43.76,114.73-0.01,158.51C272.74,345.29,201.77,345.29,158,301.52z"/>
		<g>
			<g>
				<path class="st13" d="M262.85,164.91c2.96-3.86,6.23-8.13,11.75-13.53c2.86-2.8,11.91-8.82,15.28-9.95
					c2.64-0.89,7.64,12.78,7.6,21.32c-0.04,8.03-2.94,31.72-2.94,31.72L262.85,164.91z"/>
				<path class="st16" d="M269.17,173.14c5.71-0.77,13.92-11.57,19.32-17.1c5.4-5.53,6.04,3.01,5.06,13.91
					c-0.48,5.37-1.68,11.74-3.39,14.75c-0.56,0.98-2.07,1.03-2.82,0.11C283.57,180.13,276.36,175.1,269.17,173.14z"/>
				<path class="st13" d="M301.51,319.71c-2.14,1.41-4.29,2.74-6.49,3.98c-21.64,12.36-46.38,17.21-70.45,14.59
					c-21.45-2.33-42.39-10.59-60.12-24.81c4.98-8.5,8.87-15.34,10.57-19.2c7.03-16.06,10.67-18.33,11.15-32.32
					c0.47-13.99-6.11-30.07-7.82-44.36c11.39-5.38,109.84,27.19,109.84,27.19c-9.49,19.54,6.28,34.58,10.03,43.45
					C302.69,298.85,302.67,309.34,301.51,319.71z"/>
				<path class="st13" d="M306.23,217.33c2.08,1.1,3.39,3.79,3.39,3.79s-0.19-10-5.6-17.88c-5.58-8.12-9.77-10.66-14.8-20.42
					c-5.15-10-17-22.09-33.18-23.34c-16.18-1.25-54.86-3.36-68.89,21.39c-4.15,7.32-6.64,14.24-7.92,20.66
					c-5.13,8.34-8.97,23.72-8.75,28.2c2.49-3.14,6.24-5.53,6.24-5.53s-2.23,13.85-1.59,21.13c3.31-3.96,6.96-6.29,9.53-7.57
					c6.71,11.89,30.82,29.17,64.65,25.43c27.59-3.05,40.04-7.35,45.73-16.45c1.88-3,3.85-6.83,5.61-10.74
					c0.99,0.9,3.11,3.2,4.8,7.56c1.5-7.34-0.38-14.77-0.38-14.77s2.72,2.74,4.08,4.26C309.18,226.76,308.71,222.76,306.23,217.33z"
					/>
				<path class="st17" d="M227.67,191.47c3.75-4.84,11.14-8.5,17.65-2.44C247.45,191.02,243.93,207.3,227.67,191.47z"/>
				<path class="st17" d="M289.36,189.8c-3.1-4.35-8.74-7.3-13.87-1.88C273.07,190.49,279.66,204.55,289.36,189.8z"/>
				<path class="st3" d="M274.1,200.06c-9.17-0.38-14.21-0.19-13.35,4.91c0.71,4.25,10.19,9.03,13.5,7.17
					C279.22,209.34,281.92,200.39,274.1,200.06z"/>
				<path class="st18" d="M270.58,211.17c-9.1-2.59-26.87-5.17-32.38,4.71c-4.11,7.37-1.97,14.95,4.27,20.37
					c6.71,5.83,17.31,11.47,27.85,12.4c14.75,1.29,20.85-4.13,24.75-10.05c5.81-8.83,8.5-23.45-2.77-27.63
					C285.94,208.62,276.93,209.88,270.58,211.17z"/>
				<path class="st18" d="M295.02,323.69c-21.64,12.36-46.38,17.21-70.45,14.59c-4.02-11.74-4.77-26.01-1.08-40.15
					c6.32-24.19,27-18.66,37.6-12.74c7.37-3.41,17.83-6.84,25.26-1.37C294.7,290.19,296.53,306.83,295.02,323.69z"/>
				<path class="st19" d="M261.57,226.66c-2.44,0-5.15-0.51-8.13-1.53c-0.36-0.12-0.55-0.51-0.43-0.87
					c0.12-0.36,0.51-0.55,0.87-0.43c5.59,1.91,10.15,1.94,13.54,0.07c3.86-2.12,4.83-6,4.84-6.04c0.06-0.27,0.29-0.48,0.56-0.52
					c0.28-0.04,0.55,0.09,0.69,0.33c5.79,9.65,12.09,6.48,12.16,6.45c0.34-0.18,0.75-0.05,0.93,0.29c0.18,0.34,0.05,0.75-0.29,0.93
					c-0.07,0.04-6.96,3.51-13.21-5.76c-0.67,1.52-2.12,3.94-5.02,5.54C266.21,226.14,264.03,226.66,261.57,226.66z"/>
				<g>
					<path class="st13" d="M211.85,165.24c-6.21-2.21-11.11-6.55-18.1-13.28c-5.3-5.11-9.47-12.45-14.26-12.79
						c-3.75-0.27-6.79,12.78-4.68,25.43c1.63,9.78,12.04,34.03,12.04,34.03L211.85,165.24z"/>
					<path class="st16" d="M201.17,167.78c1.43-0.87,1.38-2.95-0.05-3.81c-5.07-3.05-11.27-9.57-14.98-13.98
						c-4.88-5.81-6.49,4.2-4.41,14.91c0.73,3.73,2.52,7.52,4.17,10.42c1.33,2.33,4.57,2.56,6.23,0.45
						C194.43,172.84,197.63,169.92,201.17,167.78z"/>
				</g>
			</g>
			<g>
				<path class="st3" d="M296.49,181.83l-84.56,1.77c-0.47,0.01-0.87-0.37-0.89-0.84l0,0c-0.02-0.47,0.35-0.87,0.82-0.88l84.56-1.77
					c0.47-0.01,0.87,0.37,0.89,0.84v0C297.34,181.42,296.97,181.82,296.49,181.83z"/>
				<polygon class="st3" points="222.75,201.71 200.81,202.17 200.04,182.13 221.98,181.67 				"/>
				<path class="st17" d="M213.7,191.92c0,1.27-1.03,2.3-2.3,2.3c-1.27,0-2.3-1.03-2.3-2.3c0-1.27,1.03-2.3,2.3-2.3
					C212.67,189.62,213.7,190.65,213.7,191.92z"/>
				<path class="st16" d="M222.7,200.51l28.64-0.6c2.32-0.05,4.13-1.97,4.04-4.29l-0.53-13.79l-32.84,0.69L222.7,200.51z"/>
				<g>
					<path class="st3" d="M180.7,202.59l20.1-0.42l-0.77-20.05l-20,0.42c-1.72,0.04-3.07,1.47-3.01,3.19l0.53,13.9
						C177.63,201.31,179.03,202.63,180.7,202.59z"/>
					<path class="st20" d="M180.7,202.59l20.1-0.42l-0.77-20.05l-20,0.42c-1.72,0.04-3.07,1.47-3.01,3.19l0.53,13.9
						C177.63,201.31,179.03,202.63,180.7,202.59z"/>
				</g>
			</g>
		</g>
		<g>
			<path class="st13" d="M399.68,364.35c-0.46-2.22-1.35-4-2.55-5.48c-2.59-2.76-5.35-5.36-8.07-7.99c-2.74-2.62-5.5-5.21-8.32-7.73
				c-2.79-2.56-5.66-5.05-8.52-7.53c-5.78-4.93-11.7-9.71-17.83-14.28c-2.8-2.07-5.64-4.11-8.53-6.09
				c1.34-3.67,0.55-7.94-2.39-10.89l-4.21-4.21c-0.76-0.76-1.6-1.37-2.5-1.84c37.6-49.09,33.96-119.64-10.95-164.56
				c-48.9-48.9-128.19-48.9-177.09,0c-48.9,48.9-48.88,128.18,0.01,177.08c44.92,44.92,115.47,48.57,164.56,10.95
				c0.47,0.9,1.09,1.74,1.84,2.5l4.21,4.21c2.95,2.95,7.22,3.73,10.89,2.39c1.98,2.89,4.02,5.73,6.09,8.53
				c4.57,6.13,9.36,12.05,14.28,17.83c2.49,2.87,4.97,5.74,7.53,8.52c2.53,2.82,5.12,5.59,7.73,8.32c2.64,2.72,5.23,5.48,7.99,8.07
				c1.47,1.2,3.26,2.1,5.48,2.55c2.25,0.43,4.81,0.54,8.34-0.32c5.57-1.37,10.23-5.72,11.68-11.68
				C400.22,369.16,400.11,366.59,399.68,364.35z M154.74,304.79c-45.58-45.58-45.58-119.48-0.01-165.05
				c45.58-45.58,119.48-45.58,165.06,0c45.57,45.57,45.57,119.46-0.01,165.05C274.2,350.36,200.31,350.36,154.74,304.79z"/>
			<g>
				<path class="st19" d="M399.68,364.35c-0.46-2.22-1.35-4-2.55-5.48c-2.59-2.76-5.35-5.36-8.07-7.99
					c-2.74-2.62-5.5-5.21-8.32-7.73c-2.79-2.56-5.66-5.05-8.52-7.53c-5.78-4.93-11.7-9.71-17.83-14.28
					c-2.8-2.07-5.64-4.11-8.53-6.09c1.34-3.67,0.55-7.94-2.39-10.89l-4.21-4.21c-0.76-0.76-1.6-1.37-2.5-1.84
					c37.6-49.09,33.96-119.64-10.95-164.56c-48.9-48.9-128.19-48.9-177.09,0c-48.9,48.9-48.88,128.18,0.01,177.08
					c44.92,44.92,115.47,48.57,164.56,10.95c0.47,0.9,1.09,1.74,1.84,2.5l4.21,4.21c2.95,2.95,7.22,3.73,10.89,2.39
					c1.98,2.89,4.02,5.73,6.09,8.53c4.57,6.13,9.36,12.05,14.28,17.83c2.49,2.87,4.97,5.74,7.53,8.52c2.53,2.82,5.12,5.59,7.73,8.32
					c2.64,2.72,5.23,5.48,7.99,8.07c1.47,1.2,3.26,2.1,5.48,2.55c2.25,0.43,4.81,0.54,8.34-0.32c5.57-1.37,10.23-5.72,11.68-11.68
					C400.22,369.16,400.11,366.59,399.68,364.35z M154.74,304.79c-45.58-45.58-45.58-119.48-0.01-165.05
					c45.58-45.58,119.48-45.58,165.06,0c45.57,45.57,45.57,119.46-0.01,165.05C274.2,350.36,200.31,350.36,154.74,304.79z"/>
				<path class="st17" d="M330.23,330.86l15.63-15.63C345.85,315.24,341.7,327.13,330.23,330.86z"/>
			</g>
			<g>
				<path class="st13" d="M354.26,170.76c-1.49-3.41-3.15-6.79-4.93-10.04l0.94-0.51c1.79,3.28,3.47,6.68,4.97,10.12L354.26,170.76z
					 M345,153.4c-4.95-7.77-10.78-15.02-17.32-21.56l0.76-0.76c6.59,6.59,12.47,13.91,17.46,21.74L345,153.4z"/>
				<path class="st19" d="M354.26,170.76c-1.49-3.41-3.15-6.79-4.93-10.04l0.94-0.51c1.79,3.28,3.47,6.68,4.97,10.12L354.26,170.76z
					 M345,153.4c-4.95-7.77-10.78-15.02-17.32-21.56l0.76-0.76c6.59,6.59,12.47,13.91,17.46,21.74L345,153.4z"/>
			</g>
		</g>
	</g>
</g>
</svg>
